<?xml version="1.0" encoding="UTF-8"?>
<svg width="700pt" height="700pt" version="1.1" viewBox="0 0 700 700" xmlns="http://www.w3.org/2000/svg">
 <g>
  <path d="m280 490h-166.29c-24.098 0-43.715-19.617-43.715-43.715v-332.89c0-23.922 19.477-43.398 43.398-43.398h165.01c9.6602 0 17.5 7.8398 17.5 17.5s-7.8398 17.5-17.5 17.5h-165.01c-4.6367 0-8.3984 3.7617-8.3984 8.3984v332.87c0 4.7266 3.9883 8.7344 8.7148 8.7344h166.29c9.6602 0 17.5 7.8242 17.5 17.5s-7.8398 17.5-17.5 17.5z"/>
  <path d="m561.57 472.5c0-9.625 7.875-17.5 17.5-17.5s17.5 7.875 17.5 17.5-7.875 17.5-17.5 17.5-17.5-7.875-17.5-17.5zm-52.5 0c0-9.625 7.875-17.5 17.5-17.5s17.5 7.875 17.5 17.5-7.875 17.5-17.5 17.5-17.5-7.875-17.5-17.5zm-52.5 0c0-9.625 7.875-17.5 17.5-17.5s17.5 7.875 17.5 17.5-7.875 17.5-17.5 17.5-17.5-7.875-17.5-17.5zm-52.5 0c0-9.625 7.875-17.5 17.5-17.5s17.5 7.875 17.5 17.5-7.875 17.5-17.5 17.5-17.5-7.875-17.5-17.5zm190.93-30.273c0-9.625 7.875-17.5 17.5-17.5s17.5 7.875 17.5 17.5c0 9.8164-7.875 17.5-17.5 17.5s-17.5-7.7031-17.5-17.5zm0-52.5c0-9.625 7.875-17.5 17.5-17.5s17.5 7.875 17.5 17.5c0 9.8164-7.875 17.5-17.5 17.5s-17.5-7.7031-17.5-17.5zm0-52.5c0-9.625 7.875-17.5 17.5-17.5s17.5 7.875 17.5 17.5c0 9.8164-7.875 17.5-17.5 17.5s-17.5-7.7031-17.5-17.5zm0-52.328c0-9.8008 7.875-17.676 17.5-17.676s17.5 7.875 17.5 17.676c0 9.625-7.875 17.324-17.5 17.324-9.625 0.003906-17.5-7.6992-17.5-17.324zm0-52.672c0-9.625 7.875-17.324 17.5-17.324s17.5 7.6992 17.5 17.324c0 9.8008-7.875 17.676-17.5 17.676-9.625-0.003906-17.5-7.8789-17.5-17.676zm0-52.328c0-9.8008 7.875-17.676 17.5-17.676s17.5 7.875 17.5 17.676c0 9.625-7.875 17.324-17.5 17.324-9.625 0.003906-17.5-7.6992-17.5-17.324zm0-52.672c0-9.625 7.875-17.324 17.5-17.324s17.5 7.6992 17.5 17.324c0 9.8008-7.875 17.676-17.5 17.676-9.625-0.003906-17.5-7.8789-17.5-17.676zm-7.875-22.227h-0.17578c-9.625-0.875-16.625-9.2734-15.926-18.898 0.875-9.625 9.2734-16.801 19.074-15.926h-0.17578c9.625 0.875 16.801 9.2734 16.102 18.898-0.875 9.1016-8.3984 16.102-17.5 16.102-0.52344 0-1.0664-0.17578-1.3984-0.17578zm-68.602-17.5c0-9.625 7.875-17.5 17.5-17.5s17.5 7.875 17.5 17.5-7.875 17.5-17.5 17.5-17.5-7.875-17.5-17.5zm-52.5 0c0-9.625 7.875-17.5 17.5-17.5s17.5 7.875 17.5 17.5-7.875 17.5-17.5 17.5-17.5-7.875-17.5-17.5zm-52.5 0c0-9.625 7.875-17.5 17.5-17.5s17.5 7.875 17.5 17.5-7.875 17.5-17.5 17.5-17.5-7.875-17.5-17.5z"/>
  <path d="m350 560c-9.6602 0-17.5-7.8242-17.5-17.5v-525c0-9.6602 7.8398-17.5 17.5-17.5s17.5 7.8398 17.5 17.5v525c0 9.6758-7.8398 17.5-17.5 17.5z"/>
 </g>
</svg>
