<?xml version="1.0" encoding="iso-8859-1"?>
<!-- Generator: Adobe Illustrator 19.0.0, SVG Export Plug-In . SVG Version: 6.00 Build 0)  -->
<svg version="1.1" id="Layer_1" xmlns="http://www.w3.org/2000/svg" xmlns:xlink="http://www.w3.org/1999/xlink" x="0px" y="0px"
	 viewBox="0 0 458.178 458.178" style="enable-background:new 0 0 458.178 458.178;" xml:space="preserve">
<g>
	<path d="M130.415,277.741C95.083,313.074,45.038,324.723,0,312.697c5.918,22.164,17.568,43.116,34.956,60.504
		c52.721,52.721,138.198,52.721,190.919,0c26.361-26.36,26.36-69.099,0-95.459C199.514,251.38,156.776,251.38,130.415,277.741z"/>
	<path d="M212.771,234.276c12.728,4.827,24.403,12.338,34.317,22.252c10.077,10.077,17.456,21.838,22.19,34.378l53.47-53.47
		l-56.568-56.569C245.886,201.161,226.908,220.139,212.771,234.276z"/>
	<path d="M446.462,57.153c-15.621-15.621-40.948-15.621-56.568,0c-5.887,5.887-54.496,54.496-102.501,102.501l56.568,56.569
		l102.501-102.501C462.083,98.101,462.083,72.774,446.462,57.153z"/>
</g>
<g>
</g>
<g>
</g>
<g>
</g>
<g>
</g>
<g>
</g>
<g>
</g>
<g>
</g>
<g>
</g>
<g>
</g>
<g>
</g>
<g>
</g>
<g>
</g>
<g>
</g>
<g>
</g>
<g>
</g>
</svg>
